<?xml version="1.0" encoding="utf-8"?>
<!-- Generator: Adobe Illustrator 19.2.0, SVG Export Plug-In . SVG Version: 6.00 Build 0)  -->
<svg version="1.1" id="Calque_1" xmlns="http://www.w3.org/2000/svg" xmlns:xlink="http://www.w3.org/1999/xlink" x="0px" y="0px"
	 viewBox="0 0 78.6 87.3" style="enable-background:new 0 0 78.6 87.3;" xml:space="preserve">
<path d="M74.4,31.7c-3.9-7.4-9.9-12.1-16.9-13.3c-3.8-0.6-7.6-0.2-11.4,1.3c-1.7,0.7-3.6,1.1-5.4,1.2c0-0.1,0.1-0.2,0.1-0.4V9.3
	c0-0.8-0.7-1.5-1.5-1.5s-1.5,0.7-1.5,1.5v0.1c-0.7-1.8-1.6-3.5-3.1-5C30.6,0.3,24.2,0,22.4,0c-0.3,0-0.5,0-0.5,0
	c-0.8,0-1.4,0.7-1.4,1.4c0,0.3-0.3,8.1,4.4,12.8c4.1,4.1,10.5,4.4,12.3,4.4c0.3,0,0.5,0,0.5,0c0.1,0,0.1,0,0.1,0v1.9
	c0,0.1,0,0.3,0.1,0.4c-1.9-0.1-3.7-0.5-5.4-1.2c-3.7-1.5-7.6-1.9-11.4-1.3C14,19.6,8,24.3,4.2,31.7C0.4,39-0.9,48,0.6,57
	C3.4,74.3,15.7,87.3,29,87.3c1.1,0,2.2-0.1,3.3-0.3c0.7-0.1,1.4-0.3,2.1-0.5c3.2-0.9,6.6-0.9,9.9,0c0.7,0.2,1.4,0.3,2.1,0.5
	c1.1,0.2,2.2,0.3,3.3,0.3l0,0c13.4,0,25.6-13,28.4-30.3C79.4,47.9,78.2,38.9,74.4,31.7z M26.9,12.1c-2.7-2.7-3.3-6.9-3.5-9.1
	c2.1,0.1,6.4,0.8,9.1,3.5c2.7,2.7,3.3,6.9,3.5,9.1C33.8,15.5,29.6,14.8,26.9,12.1z M75,56.5c-2.6,15.8-13.5,27.8-25.5,27.8
	c-0.9,0-1.9-0.1-2.8-0.2c-0.6-0.1-1.2-0.2-1.8-0.4c-1.9-0.5-3.8-0.8-5.7-0.8s-3.9,0.3-5.7,0.8c-0.6,0.2-1.2,0.3-1.8,0.4
	c-0.9,0.2-1.9,0.2-2.8,0.2C17,84.3,6,72.3,3.4,56.5C2,48,3.2,39.7,6.7,33c3.4-6.5,8.7-10.7,14.8-11.7c3.2-0.5,6.6-0.1,9.8,1.1
	c5.1,2,10.9,2,16,0c3.2-1.3,6.5-1.7,9.8-1.1c6.1,1,11.4,5.2,14.8,11.7C75.2,39.8,76.4,48.1,75,56.5z"/>
</svg>
