<?xml version="1.0" encoding="utf-8"?>
<!-- Generator: Adobe Illustrator 19.2.0, SVG Export Plug-In . SVG Version: 6.00 Build 0)  -->
<svg version="1.1" id="Calque_1" xmlns="http://www.w3.org/2000/svg" xmlns:xlink="http://www.w3.org/1999/xlink" x="0px" y="0px"
	 viewBox="0 0 54 54" style="enable-background:new 0 0 54 54;" xml:space="preserve">
<g>
	<g>
		<path d="M27,0C12.1,0,0,12.1,0,27s12.1,27,27,27s27-12.1,27-27S41.9,0,27,0z M27,52C13.2,52,2,40.8,2,27S13.2,2,27,2
			s25,11.2,25,25S40.8,52,27,52z M44,26H10c-0.6,0-1,0.4-1,1c0,9.9,8.1,18,18,18s18-8.1,18-18C45,26.4,44.6,26,44,26z M27,43
			c-8.5,0-15.5-6.6-16-15H43C42.5,36.4,35.5,43,27,43z M35,20c0.6,0,1-0.4,1-1v-6c0-0.6-0.4-1-1-1s-1,0.4-1,1v6
			C34,19.6,34.4,20,35,20z M19,20c0.6,0,1-0.4,1-1v-6c0-0.6-0.4-1-1-1s-1,0.4-1,1v6C18,19.6,18.4,20,19,20z"/>
	</g>
</g>
</svg>
