<?xml version="1.0" encoding="utf-8"?>
<!-- Generator: Adobe Illustrator 19.2.0, SVG Export Plug-In . SVG Version: 6.00 Build 0)  -->
<svg version="1.1" id="Calque_1" xmlns="http://www.w3.org/2000/svg" xmlns:xlink="http://www.w3.org/1999/xlink" x="0px" y="0px"
	 viewBox="0 0 83 80" style="enable-background:new 0 0 83 80;" xml:space="preserve">
<path d="M67.5,0l-5.2,5l4.7,4.9l-8.1,7.8l-6.9-7.3l-5.1,4.8l2.3,2.4L19.6,45.7l0,0.4c0,0.2-0.4,4.9,1.9,9.1c-0.1,0-0.2,0.1-0.2,0.1
	L17.3,59l1.6,1.6c-0.1,0-0.2,0.1-0.2,0.1L0.3,78.3c-0.4,0.4-0.4,1,0,1.4C0.5,79.9,0.7,80,1,80c0.2,0,0.5-0.1,0.7-0.3l18.4-17.5
	c0.1-0.1,0.1-0.1,0.2-0.2l1.6,1.6l3.9-3.7c0.1-0.1,0.1-0.1,0.2-0.2c3.4,2.1,7.3,2.3,8.7,2.3c0.2,0,0.3,0,0.3,0l0.4,0l29.4-28.1
	l2.3,2.4l5.1-4.8l-6.9-7.3l8.1-7.8l4.7,4.9l5.2-5L67.5,0z M21.8,60.8L20.2,59l2.4-2.3c0.2,0.3,0.5,0.6,0.8,0.9
	c0.3,0.3,0.6,0.6,0.9,0.8L21.8,60.8z M55.4,39.9l-7.6-8c-0.4-0.4-1-0.4-1.4,0c-0.4,0.4-0.4,1,0,1.4l7.6,8l-1.4,1.4l-4.6-4.8
	c-0.4-0.4-1-0.4-1.4,0c-0.4,0.4-0.4,1,0,1.4L51,44l-1.4,1.4l-7.6-8c-0.4-0.4-1-0.4-1.4,0c-0.4,0.4-0.4,1,0,1.4l7.6,8l-1.4,1.4
	l-4.6-4.8c-0.4-0.4-1-0.4-1.4,0c-0.4,0.4-0.4,1,0,1.4l4.6,4.8l-1.4,1.4l-7.6-8c-0.4-0.4-1-0.4-1.4,0c-0.4,0.4-0.4,1,0,1.4l7.6,8
	l-1.4,1.4l-4.6-4.8c-0.4-0.4-1-0.4-1.4,0c-0.4,0.4-0.4,1,0,1.4l4.6,4.8l-5.1,4.9c-1.3,0-6.4-0.3-9.6-3.6c-3.2-3.3-3.2-8.3-3.2-9.7
	l28.8-27.5l12.8,13.4L55.4,39.9z M69,31.3l-2.2,2.1L66,32.5l0,0l-2.1-2.2l-14.3-15l2.2-2.1l6.7,7l5,5.2l0,0L69,31.3z M73.1,13.5
	l-9.6,9.1l-3.4-3.6l9.6-9.1l-4.7-4.9l2.4-2.2l12.8,13.4l-2.4,2.2L73.1,13.5z"/>
</svg>
