<?xml version="1.0" encoding="utf-8"?>
<!-- Generator: Adobe Illustrator 19.2.0, SVG Export Plug-In . SVG Version: 6.00 Build 0)  -->
<svg version="1.1" id="Calque_1" xmlns="http://www.w3.org/2000/svg" xmlns:xlink="http://www.w3.org/1999/xlink" x="0px" y="0px"
	 viewBox="0 0 71.5 71.5" style="enable-background:new 0 0 71.5 71.5;" xml:space="preserve">
<g>
	<path d="M67.5,4.1C64,0.6,58.8-0.6,53.4,0.3c-5.4,0.9-11,3.8-15.7,8.5c-3,3-5.3,6.4-6.8,9.8c0,0,0,0.1,0,0.1
		c-2.8,6-3.5,11.4-4.2,15.9c-0.6,4.4-1.2,7.8-3.4,10c-1.4,1.4-3.3,3.3-5.1,5.2L18,49.5c-0.8-0.8-2.1-0.8-2.9,0L0.6,63.9
		c-0.8,0.8-0.8,2.1,0,2.9l4.1,4.1c0.8,0.8,2.1,0.8,2.9,0l14.5-14.5c0.8-0.8,0.8-2.1,0-2.9l-0.2-0.2c1.8-1.8,3.7-3.7,5.2-5.1
		c2.2-2.2,5.5-2.8,10-3.4c4.4-0.7,9.8-1.4,15.9-4.2c0.1,0,0.1-0.1,0.2-0.1c3.4-1.5,6.8-3.7,9.8-6.7c4.7-4.7,7.6-10.4,8.5-15.7
		C72.1,12.7,71,7.6,67.5,4.1L67.5,4.1z M65.7,4.6c-0.1,0.1-0.1,0.1-0.2,0.2c-0.3,0.3-0.6,0.7-1.1,1.2c-0.5,0.5-1.3,1.3-2,2
		c-1.5-1.5-1.8-1.8-3-3c0.4-0.4,1-1,1.3-1.3c0.5-0.5,0.8-0.8,1.1-1C62,2.5,62,2.5,62,2.5C63.4,3,64.6,3.7,65.7,4.6L65.7,4.6z
		 M66.9,5.8c1,1.1,1.7,2.3,2.2,3.7c0,0-0.1,0.1-0.2,0.2l-1.1,1.1c-0.3,0.3-0.9,0.9-1.3,1.4c-1-1-1.9-1.9-3-3c0.7-0.7,1.5-1.5,2-2
		L66.7,6C66.8,5.9,66.8,5.9,66.9,5.8L66.9,5.8z M69.6,11.2c0.3,1.3,0.4,2.7,0.3,4.2c-0.5-0.4-1-1-1.7-1.7c-0.1-0.2-0.4-0.4-0.6-0.6
		c0.4-0.4,1-1,1.3-1.3C69.2,11.6,69.4,11.4,69.6,11.2L69.6,11.2z M60.3,2c-0.2,0.2-0.4,0.3-0.6,0.6c-0.3,0.3-0.9,0.9-1.3,1.3
		c-0.7-0.7-1.5-1.5-2.3-2.3C57.6,1.6,59,1.7,60.3,2L60.3,2z M54.3,2c0.1,0.1,2,2,3,3c-0.5,0.4-0.7,0.7-1.2,1.2
		c-0.5,0.5-1.2,1.2-1.7,1.7c-0.8-0.8-2.3-2.3-3-3c0.8-0.8,1.6-1.6,2.1-2.1L54.3,2C54.3,2,54.3,2.1,54.3,2L54.3,2z M69.5,17.2
		C69.4,17.2,69.5,17.2,69.5,17.2c-0.3,0.3-0.5,0.6-0.8,0.9c-0.5,0.5-1.3,1.3-2.1,2.1c-0.3-0.3-0.5-0.5-0.8-0.8
		c-0.6-0.6-1.5-1.5-2.2-2.2c0.5-0.5,1.3-1.2,1.7-1.7c0.5-0.5,0.8-0.8,1.2-1.2c0.2,0.2,0.4,0.4,0.6,0.6c0.8,0.7,1.4,1.4,1.9,1.8
		C69.2,16.9,69.3,17.1,69.5,17.2L69.5,17.2z M58.4,6.1c1.2,1.2,1.5,1.5,3,3c-0.3,0.3-0.4,0.4-0.7,0.7c-0.6,0.6-1.5,1.5-2.2,2.3
		c-1.4-1.4-2-2-3-3c0.5-0.5,1.2-1.2,1.7-1.7C57.6,6.8,57.9,6.6,58.4,6.1L58.4,6.1z M62.4,10.2c1.1,1.1,2,2,3,3
		c-0.4,0.5-0.7,0.7-1.2,1.2c-0.5,0.5-1.2,1.2-1.7,1.7c-1-1-1.9-1.9-3-3c0.7-0.7,1.6-1.6,2.3-2.2C62,10.6,62.2,10.4,62.4,10.2
		L62.4,10.2z M69.3,19.7c-0.2,0.8-0.5,1.7-0.8,2.5c-0.1-0.1-0.2-0.2-0.3-0.3c-0.1-0.1-0.4-0.4-0.5-0.5
		C68.3,20.7,68.8,20.2,69.3,19.7L69.3,19.7z M51.8,2.3c-0.5,0.5-1,1-1.6,1.6c-0.1-0.1-0.5-0.5-0.8-0.8C50.2,2.7,51,2.5,51.8,2.3
		L51.8,2.3z M54.3,10.2c1,1,1.5,1.5,3,3c-1,0.9-1.9,1.9-3,3c-1.4-1.4-2-2-3-3C52.4,12.1,53.4,11.1,54.3,10.2L54.3,10.2z M58.4,14.2
		c1.1,1.1,2,2,3,3c-0.9,1-2,1.9-3,3c-1-1-1.9-1.9-3-3C56.4,16.2,57.4,15.2,58.4,14.2L58.4,14.2z M62.5,18.4c0.7,0.7,1.6,1.6,2.2,2.2
		c0.3,0.3,0.5,0.5,0.8,0.8c-0.8,0.8-2,2-3,3c0-0.1-0.1-0.1-0.1-0.1c-0.8-0.8-1.9-1.9-2.9-2.9C60.5,20.3,61.5,19.3,62.5,18.4
		L62.5,18.4z M66.5,22.4c0.1,0.2,0.4,0.4,0.5,0.5c0.3,0.3,0.5,0.5,0.7,0.7c0,0.1,0.1,0.1,0.1,0.1c-0.6,1.3-1.3,2.6-2.1,3.8
		c-0.2-0.2-0.5-0.5-0.8-0.8c-0.4-0.4-0.9-0.9-1.4-1.4C64.6,24.4,65.7,23.3,66.5,22.4L66.5,22.4z M50.2,6.1c0.6,0.7,2.1,2.1,2.9,3
		c-0.9,0.9-1.9,1.9-3,3c-0.8-0.8-2.1-2.1-3-2.9C48.2,8.1,49.3,7,50.2,6.1L50.2,6.1z M47.7,3.7C48,3.9,48.9,4.8,49,5
		c-0.8,0.8-2,2-2.9,3c-0.5-0.4-1.8-1.7-2.2-2.2C45.2,5,46.4,4.3,47.7,3.7L47.7,3.7z M58.4,22.4c0.9,1,2.1,2.1,2.8,2.9
		c0.1,0.1,0.1,0.1,0.1,0.1c-1,1-1.9,1.9-3,3c-0.8-0.8-2-2-3-3C56.5,24.3,57.4,23.5,58.4,22.4L58.4,22.4z M62.5,26.5
		c0.5,0.5,1,1.1,1.4,1.4c0.3,0.3,0.5,0.6,0.7,0.8c0.2,0.2,0.3,0.3,0.3,0.3c-0.8,1.1-1.7,2.2-2.7,3.2c-0.2-0.2-0.4-0.4-0.7-0.7
		c-0.5-0.5-1.2-1.2-1.9-1.9C60.6,28.4,61.4,27.5,62.5,26.5L62.5,26.5z M50.2,14.3c1,0.9,1.5,1.5,3,3c-1,1-1.9,1.9-3,3
		c-1.4-1.4-2-2-3-3C48.3,16.2,49.2,15.3,50.2,14.3L50.2,14.3z M54.3,18.3c1.1,1.1,2,2,3,3c-1,1-1.9,1.9-3,3c-1-1-1.9-1.9-3-3
		C52.4,20.2,53.2,19.4,54.3,18.3L54.3,18.3z M42.6,6.7c0.2,0.2,1.9,1.9,2.4,2.4c-1,1-1.9,1.9-2.9,2.9c-0.6-0.6-2.2-2.2-2.7-2.6
		C40.4,8.4,41.5,7.5,42.6,6.7L42.6,6.7z M46.1,10.2c0.8,0.8,2.1,2.1,3,3c-1,1-1.9,1.9-3,3c-0.8-0.8-2.1-2.1-3-3
		C44.2,12.1,45.1,11.2,46.1,10.2L46.1,10.2z M46.1,18.4c0.9,0.9,1.5,1.6,3,3c-1.5,1.5-1.5,1.5-3,3c-1.4-1.4-2-2-3-3
		C44.6,19.9,44.6,19.8,46.1,18.4L46.1,18.4z M50.2,22.4c1.1,1.1,2,2,3,3c-1.5,1.5-1.5,1.6-3,3c-1-1-1.9-1.9-3-3
		C48.6,24,48.7,23.9,50.2,22.4L50.2,22.4z M54.3,26.5c1,1,2.1,2.1,3,3c-1.5,1.5-1.6,1.6-3,3c0,0,0-0.1-0.1-0.1
		c-0.8-0.8-1.9-1.9-2.9-2.9C52.7,28.1,52.8,28,54.3,26.5L54.3,26.5z M58.4,30.6c0.7,0.7,1.4,1.4,1.9,1.9c0.3,0.3,0.6,0.6,0.8,0.8
		c-1,1-2.1,1.9-3.2,2.7c0,0-0.1-0.1-0.3-0.2c-0.2-0.2-0.4-0.4-0.8-0.8s-0.9-0.9-1.4-1.4C56.8,32.2,56.9,32.1,58.4,30.6L58.4,30.6z
		 M38.2,10.5c0.5,0.5,2,2,2.6,2.6c-1.5,1.5-1.6,1.6-2.9,2.9c-0.5-0.5-2.2-2.2-2.4-2.4C36.4,12.6,37.3,11.5,38.2,10.5L38.2,10.5z
		 M42,14.3c0.9,0.9,2.1,2.1,3,2.9c-1.5,1.5-1.5,1.5-2.9,3c-0.8-0.8-2.2-2.1-3-3C40.4,15.9,40.6,15.8,42,14.3L42,14.3z M34.7,15
		c0.4,0.4,1.7,1.7,2.2,2.2c-1.3,1.3-2.1,2.1-3,3c-0.2-0.2-1.1-1.1-1.4-1.3C33.1,17.6,33.8,16.3,34.7,15L34.7,15z M38,18.4
		c0.8,0.8,2.1,2.1,3,3c-1.4,1.4-1.8,1.8-3,3c-0.8-0.9-2.3-2.3-2.9-3C35.9,20.4,36.7,19.6,38,18.4L38,18.4z M55.7,36.1
		c0.3,0.3,0.6,0.6,0.8,0.8c-1.2,0.8-2.5,1.5-3.8,2.1c0,0-0.1-0.1-0.1-0.1c-0.2-0.2-0.4-0.4-0.7-0.7c-0.1-0.1-0.4-0.4-0.5-0.5
		c0.9-0.9,1.7-1.7,2.9-3C54.7,35.2,55.3,35.7,55.7,36.1L55.7,36.1z M42,22.5c0.9,0.9,1.5,1.5,2.9,2.9c-1.4,1.4-1.8,1.8-2.9,3
		c-1.4-1.4-2-2-3-3C40.2,24.3,40.7,23.8,42,22.5L42,22.5z M46.1,26.5c1.1,1.1,2,2,3,3c-1.4,1.4-1.8,1.8-3,3c-1-1-1.9-1.9-3-3
		C44.3,28.3,44.7,27.9,46.1,26.5L46.1,26.5z M50.2,30.6c0.9,0.9,2.1,2.1,2.8,2.8c0,0.1,0.1,0.1,0.1,0.1c-1.3,1.3-2.1,2.1-2.9,3
		c-0.3-0.3-0.5-0.4-0.8-0.7c-0.6-0.6-1.5-1.5-2.2-2.2C48.4,32.4,48.8,32,50.2,30.6L50.2,30.6z M31.9,20.5c0.4,0.4,0.8,0.7,0.9,0.8
		c-0.4,0.4-0.9,0.9-1.7,1.7C31.3,22.1,31.6,21.3,31.9,20.5L31.9,20.5z M33.9,22.4c0.7,0.7,2.1,2.1,3,3c-1,1-2.3,2.3-3,3
		c-0.9-0.9-2.9-2.8-3-2.9C31,25.3,33.2,23.1,33.9,22.4L33.9,22.4z M38,26.5c1,1,1.5,1.5,3,3c-1,1-2.2,2.2-2.9,2.9
		c-1.5-1.5-1.8-1.8-3-3C35.7,28.8,36.9,27.6,38,26.5L38,26.5z M42,30.6c1,1.1,1.9,1.9,2.9,3c-1,1-2.3,2.3-2.9,2.9c-1-1-1.9-1.9-3-3
		C39.8,32.8,41,31.7,42,30.6L42,30.6z M46.1,34.7c0.7,0.7,1.6,1.6,2.2,2.2c0.3,0.3,0.5,0.5,0.8,0.7c-0.7,0.7-2.9,2.9-3,2.9
		c-0.1-0.1-0.3-0.3-0.5-0.5c-0.5-0.5-1.1-1.1-1.8-1.8c-0.2-0.2-0.5-0.5-0.6-0.6C43.8,37,45.1,35.7,46.1,34.7L46.1,34.7z M50.2,38.8
		c0.1,0.1,0.4,0.4,0.5,0.5c0.1,0.1,0.2,0.2,0.3,0.3c-0.8,0.3-1.6,0.6-2.5,0.8C49.3,39.7,49.8,39.2,50.2,38.8L50.2,38.8z M36.9,33.6
		c-0.6,0.6-2.9,2.9-3.3,3.3c-1-1.1-1.7-2.4-2.2-3.7c0.4-0.4,2.1-2.1,2.5-2.5C35.1,31.8,35.4,32.1,36.9,33.6L36.9,33.6z M38,34.7
		c1.1,1,2,2,2.9,3c-0.4,0.4-2.2,2.1-2.5,2.5c-1.4-0.5-2.6-1.2-3.7-2.2C35.1,37.6,37.3,35.3,38,34.7L38,34.7z M32.8,29.5
		c-0.3,0.3-1.2,1.2-1.9,1.9c-0.3-1.3-0.5-2.7-0.4-4.2C31.1,27.9,32,28.7,32.8,29.5L32.8,29.5z M42,38.7c0.2,0.2,0.4,0.5,0.6,0.6
		c0.7,0.7,1.2,1.2,1.7,1.7c-1.5,0.1-2.9-0.1-4.2-0.4C40.8,40,41.7,39.1,42,38.7L42,38.7z M29,30.2c0.4,3.2,1.7,6.2,4,8.4
		c2.2,2.2,5.1,3.5,8.3,3.9c-1.6,0.3-3.1,0.5-4.6,0.7c-4.4,0.7-8.2,1.3-10.8,3.9c-1.4,1.4-3.3,3.3-5.2,5.1l-1.4-1.4
		c1.8-1.8,3.7-3.7,5.1-5.1c2.6-2.6,3.2-6.4,3.9-10.9C28.5,33.4,28.7,31.8,29,30.2L29,30.2z M16.8,50.6l4.1,4.1
		c0.2,0.2,0.2,0.4,0,0.6L6.4,69.8C6.3,70,6,70,5.8,69.8l-4.1-4.1c-0.2-0.2-0.2-0.5,0-0.6l14.5-14.5C16.4,50.4,16.6,50.4,16.8,50.6
		L16.8,50.6z"/>
</g>
</svg>
